<svg xmlns="http://www.w3.org/2000/svg" viewBox="0 0 1680 720" role="img" aria-labelledby="title desc">
  <title id="title">Powehi Universal SEO</title>
  <desc id="desc">Powehi Universal SEO banner showing evidence flowing through search intelligence capabilities toward prioritized decisions.</desc>
  <defs>
    <linearGradient id="orange" x1="0" y1="0" x2="1" y2="1"><stop stop-color="#E8922D"/><stop offset="1" stop-color="#D4841C"/></linearGradient>
    <radialGradient id="halo"><stop stop-color="#E8922D" stop-opacity=".2"/><stop offset="1" stop-color="#E8922D" stop-opacity="0"/></radialGradient>
    <pattern id="grid" width="48" height="48" patternUnits="userSpaceOnUse"><path d="M48 0H0V48" fill="none" stroke="#2A2A2A" stroke-width="1"/></pattern>
    <filter id="blur"><feGaussianBlur stdDeviation="45"/></filter>
  </defs>
  <rect width="1680" height="720" rx="28" fill="#0A0A0A"/>
  <rect width="1680" height="720" rx="28" fill="url(#grid)" opacity=".45"/>
  <ellipse cx="1320" cy="320" rx="420" ry="360" fill="url(#halo)" filter="url(#blur)"/>
  <g font-family="'Plus Jakarta Sans',Inter,Arial,sans-serif">
    <g transform="translate(104 62)">
      <image href="powehi-logo-white-orange.png" width="92" height="92" preserveAspectRatio="xMidYMid meet"/>
      <text x="116" y="39" fill="#F5F5F5" font-size="26" font-weight="750">Powehi Universal SEO</text>
      <text x="116" y="66" fill="#8A8A8A" font-size="13" font-weight="650" letter-spacing="1.8">OPEN-SOURCE AGENT TOOLKIT</text>
    </g>
    <text x="104" y="236" fill="#E8922D" font-size="18" font-weight="700" letter-spacing="3">UNIVERSAL SEARCH INTELLIGENCE</text>
    <text x="104" y="324" fill="#F5F5F5" font-size="70" font-weight="760" letter-spacing="-3">Powehi Universal SEO</text>
    <text x="104" y="378" fill="#A3A3A3" font-size="27" font-weight="500">SEO, AI Search &amp; GEO Intelligence</text>
    <g transform="translate(104 452)">
      <rect width="630" height="88" rx="18" fill="#141414" stroke="#2A2A2A"/>
      <circle cx="36" cy="44" r="7" fill="#E8922D"/>
      <text x="60" y="52" fill="#F5F5F5" font-family="ui-monospace,Consolas,monospace" font-size="23">/powehi-seo audit https://example.com</text>
      <path d="M588 32l14 12-14 12" fill="none" stroke="#E8922D" stroke-width="3" stroke-linecap="round" stroke-linejoin="round"/>
    </g>
    <g transform="translate(900 110)">
      <rect width="660" height="500" rx="24" fill="#101010" stroke="#2A2A2A"/>
      <text x="34" y="48" fill="#F5F5F5" font-size="16" font-weight="700">EVIDENCE PIPELINE</text>
      <circle cx="612" cy="42" r="6" fill="#10B981"/><text x="584" y="48" text-anchor="end" fill="#8A8A8A" font-size="12">READY</text>
      <g transform="translate(34 82)">
        <rect width="592" height="76" rx="14" fill="#1A1A1A" stroke="#303030"/><rect width="6" height="76" rx="3" fill="#E8922D"/>
        <text x="28" y="32" fill="#F5F5F5" font-size="16" font-weight="700">01  DISCOVER CAPABILITIES</text><text x="28" y="56" fill="#8A8A8A" font-size="13">GSC · GA4 · CrUX · PageSpeed · backlinks</text>
        <circle cx="555" cy="38" r="14" fill="#E8922D" fill-opacity=".12" stroke="#E8922D"/><path d="M549 38l4 4 8-9" fill="none" stroke="#E8922D" stroke-width="2"/>
      </g>
      <g transform="translate(34 174)">
        <rect width="592" height="76" rx="14" fill="#1A1A1A" stroke="#303030"/>
        <text x="28" y="32" fill="#F5F5F5" font-size="16" font-weight="700">02  COLLECT EVIDENCE</text><text x="28" y="56" fill="#8A8A8A" font-size="13">source · build · live · authenticated data</text>
        <g transform="translate(475 27)" fill="#E8922D"><rect width="18" height="22" rx="3" opacity=".35"/><rect x="26" y="-8" width="18" height="30" rx="3" opacity=".65"/><rect x="52" y="-18" width="18" height="40" rx="3"/></g>
      </g>
      <g transform="translate(34 266)">
        <rect width="592" height="76" rx="14" fill="#1A1A1A" stroke="#303030"/>
        <text x="28" y="32" fill="#F5F5F5" font-size="16" font-weight="700">03  ORCHESTRATE SPECIALISTS</text><text x="28" y="56" fill="#8A8A8A" font-size="13">25 sub-skills · 18 specialist agents</text>
        <g fill="none" stroke="#E8922D"><circle cx="526" cy="38" r="7"/><circle cx="555" cy="23" r="7"/><circle cx="555" cy="53" r="7"/><path d="M533 34l15-8m-15 16l15 8"/></g>
      </g>
      <g transform="translate(34 358)">
        <rect width="592" height="108" rx="14" fill="url(#orange)"/>
        <text x="28" y="38" fill="#0A0A0A" font-size="16" font-weight="800">04  VALIDATE &amp; PRIORITIZE</text><text x="28" y="66" fill="#0A0A0A" fill-opacity=".78" font-size="13">falsifiable findings · action plan · portable artifacts</text>
        <text x="28" y="92" fill="#0A0A0A" font-size="12" font-weight="700" letter-spacing="1.5">EVIDENCE IN  →  DECISIONS OUT</text>
      </g>
    </g>
  </g>
</svg>
